<svg width="32" height="32" viewBox="0 0 32 32" fill="none" xmlns="http://www.w3.org/2000/svg">
<g opacity="0.5" clip-path="url(#clip0_93_778)">
<circle cx="8.66667" cy="14.6666" r="0.666667" fill="#999999"/>
<ellipse cx="11.9999" cy="9.33329" rx="0.666667" ry="0.666667" fill="#999999"/>
<path d="M19.3334 10.6424L26.6947 2.66567C27.0805 2.24762 27.6438 2.0405 28.2085 2.10901V2.10901C29.017 2.2071 29.6542 2.8443 29.7523 3.65282V3.65282C29.8208 4.21755 29.6137 4.78079 29.1957 5.1666L21.219 12.528M19.3334 10.6424L21.219 12.528M19.3334 10.6424L18 9.66663M21.219 12.528L22 13.6666" stroke="#999999" stroke-width="1.5"/>
<path fill-rule="evenodd" clip-rule="evenodd" d="M16 29.8333C23.6399 29.8333 29.8333 23.6399 29.8333 16C29.8333 12.7349 28.7021 9.73406 26.8103 7.36792L27.9152 6.34829C30.0526 8.98375 31.3333 12.3423 31.3333 16C31.3333 24.4683 24.4683 31.3333 16 31.3333C7.53159 31.3333 0.666626 24.4683 0.666626 16C0.666626 7.53159 7.53159 0.666626 16 0.666626C19.5871 0.666626 22.8865 1.8984 25.4983 3.96204L24.4777 5.06801C22.136 3.24942 19.1944 2.16663 16 2.16663C8.36002 2.16663 2.16663 8.36002 2.16663 16C2.16663 23.6399 8.36002 29.8333 16 29.8333ZM23.4484 6.18327L22.9076 5.99248L21.8865 4.78418L20.312 4.63016L19.0313 3.70136L17.4657 3.92862L16 3.33329L14.5342 3.92862L12.9686 3.70136L11.688 4.63016L10.1135 4.78418L9.09229 5.99248L7.60041 6.51882L6.89807 7.93639L5.5755 8.80447L5.23281 10.3489L4.15642 11.5083L4.19331 13.0899L3.42565 14.4732L3.83996 16L3.42565 17.5268L4.19331 18.91L4.15642 20.4916L5.23281 21.651L5.5755 23.1954L6.89807 24.0635L7.60041 25.4811L9.09229 26.0074L10.1135 27.2157L11.688 27.3698L12.9686 28.2986L14.5342 28.0713L16 28.6666L17.4657 28.0713L19.0313 28.2986L20.312 27.3698L21.8865 27.2157L22.9076 26.0074L24.3995 25.4811L25.1018 24.0635L26.4244 23.1954L26.7671 21.651L27.8435 20.4916L27.8066 18.91L28.5743 17.5268L28.16 16L28.5743 14.4732L27.8066 13.0899L27.8435 11.5083L26.7671 10.3489L26.4244 8.80447L25.7403 8.35542L24.6041 9.40393L25.092 9.72417L25.3027 10.6738L25.3909 11.0712L25.6678 11.3695L26.3297 12.0824L26.307 13.0549L26.2975 13.4618L26.495 13.8177L26.9671 14.6683L26.7123 15.6071L26.6057 16L26.7123 16.3928L26.9671 17.3316L26.495 18.1822L26.2975 18.5381L26.307 18.945L26.3297 19.9175L25.6678 20.6304L25.3909 20.9287L25.3027 21.3261L25.092 22.2757L24.2788 22.8095L23.9385 23.0329L23.7578 23.3976L23.3259 24.2693L22.4086 24.5929L22.0247 24.7283L21.762 25.0392L21.1341 25.7822L20.1659 25.8769L19.7608 25.9165L19.4313 26.1555L18.6438 26.7266L17.6812 26.5869L17.2783 26.5284L16.9012 26.6816L16 27.0476L15.0987 26.6816L14.7216 26.5284L14.3188 26.5869L13.3561 26.7266L12.5686 26.1555L12.2391 25.9165L11.834 25.8769L10.8659 25.7822L10.2379 25.0392L9.9752 24.7283L9.59135 24.5929L8.674 24.2693L8.24215 23.3976L8.06144 23.0329L7.72115 22.8095L6.90791 22.2757L6.6972 21.3261L6.60903 20.9287L6.33208 20.6304L5.67022 19.9175L5.6929 18.945L5.70239 18.5381L5.50488 18.1822L5.03285 17.3316L5.28761 16.3928L5.39421 16L5.28761 15.6071L5.03285 14.6683L5.50488 13.8177L5.70239 13.4618L5.6929 13.0549L5.67022 12.0824L6.33208 11.3695L6.60903 11.0712L6.6972 10.6738L6.90791 9.72417L7.72115 9.1904L8.06144 8.96704L8.24215 8.60231L8.67401 7.73067L9.59135 7.40702L9.9752 7.2716L10.2379 6.96071L10.8659 6.21774L11.834 6.12304L12.2391 6.08341L12.5686 5.84443L13.3561 5.27332L14.3188 5.41306L14.7216 5.47153L15.0987 5.31836L16 4.9523L16.9012 5.31836L17.2783 5.47153L17.6812 5.41306L18.6438 5.27332L19.4313 5.84443L19.7608 6.08341L20.1659 6.12304L21.1341 6.21774L21.762 6.96071L22.0247 7.2716L22.3411 7.3832L23.4484 6.18327Z" fill="#999999"/>
<ellipse cx="16.6667" cy="7.99998" rx="0.666667" ry="0.666667" fill="#999999"/>
<ellipse cx="23.9999" cy="15.3333" rx="0.666666" ry="0.666667" fill="#999999"/>
<circle cx="21.3333" cy="22" r="0.666667" fill="#999999"/>
<ellipse cx="12.6667" cy="22.6666" rx="0.666667" ry="0.666667" fill="#999999"/>
<ellipse cx="13.3333" cy="18" rx="2.66667" ry="1.33333" stroke="#999999" stroke-width="1.5"/>
<ellipse cx="18.6667" cy="18" rx="2.66667" ry="1.33333" stroke="#999999" stroke-width="1.5"/>
<path d="M16.3333 17.3333C16.9999 17 17.3333 16.1394 17.3333 14.6667C17.3333 13.1939 16.7363 12 15.9999 12C15.2635 12 14.6666 13.1939 14.6666 14.6667" stroke="#999999" stroke-width="1.5"/>
</g>
<defs>
<clipPath id="clip0_93_778">
<rect width="32" height="32" fill="white"/>
</clipPath>
</defs>
</svg>
