<svg width="32" height="32" viewBox="0 0 32 32" fill="none" xmlns="http://www.w3.org/2000/svg">
<g opacity="0.5" clip-path="url(#clip0_93_911)">
<rect x="2" y="15.3333" width="28" height="2.66667" rx="1.33333" stroke="#999999" stroke-width="1.5"/>
<rect x="2" y="18" width="28" height="2.66667" rx="1.33333" stroke="#999999" stroke-width="1.5"/>
<path d="M4.66669 20.6667H28V24.6667C28 25.7713 27.1046 26.6667 26 26.6667H6.66669C5.56212 26.6667 4.66669 25.7713 4.66669 24.6667V20.6667Z" stroke="#999999" stroke-width="1.5"/>
<path d="M4.66669 11.3982C4.66669 10.5962 4.91471 9.81378 5.37675 9.15825V9.15825C10.4308 1.98777 20.9999 1.80602 26.2976 8.79849L26.5275 9.10193C27.0504 9.79212 27.3334 10.6343 27.3334 11.5002V15.3334H4.66669V11.3982Z" stroke="#999999" stroke-width="1.5"/>
<ellipse cx="23.3334" cy="10.6667" rx="0.666667" ry="0.666667" fill="#999999"/>
<ellipse cx="14.6667" cy="12" rx="0.666667" ry="0.666667" fill="#999999"/>
<ellipse cx="7.33335" cy="10" rx="0.666667" ry="0.666667" fill="#999999"/>
<ellipse cx="12" cy="7.33335" rx="0.666667" ry="0.666667" fill="#999999"/>
<ellipse cx="18.6667" cy="8.66667" rx="0.666667" ry="0.666667" fill="#999999"/>
<path d="M7.85089 20.6667C8.26247 21.5392 9.63878 23.2842 11.8514 23.2842C14.064 23.2842 15.539 21.5392 16 20.6667" stroke="#999999" stroke-width="1.5"/>
<path d="M17.3333 20.6667C17.7037 21.3334 18.9422 22.6667 20.9333 22.6667C22.9244 22.6667 24.2518 21.3334 24.6666 20.6667" stroke="#999999" stroke-width="1.5"/>
</g>
<defs>
<clipPath id="clip0_93_911">
<rect width="32" height="32" fill="white"/>
</clipPath>
</defs>
</svg>
