<svg width="32" height="32" viewBox="0 0 32 32" fill="none" xmlns="http://www.w3.org/2000/svg">
<g opacity="0.5">
<path d="M7.19391 20.8767L9.10445 27.8024C9.34372 28.6698 10.1327 29.2706 11.0324 29.2706H20.242C21.0944 29.2706 21.8531 28.7303 22.1319 27.9248L24.2711 21.745" stroke="#999999" stroke-width="1.5"/>
<path d="M12.2081 27.3841L10.7217 22.324M14.4249 27.3841L13.7915 22.3239M16.9584 27.3841L17.9033 23.5839M19.8085 27.3841L20.7586 24.2172" stroke="#999999" stroke-width="1.5"/>
<circle cx="22.245" cy="8.72009" r="3.8811" stroke="#999999" stroke-width="1.5"/>
<path fill-rule="evenodd" clip-rule="evenodd" d="M26.6708 12.4516C28.5938 13.2722 29.9416 15.1803 29.9416 17.4032C29.9416 20.3751 27.5324 22.7843 24.5605 22.7843C23.774 22.7843 23.0255 22.6151 22.3507 22.3108C21.5291 22.9688 20.4854 23.3632 19.3505 23.3632C17.7926 23.3632 16.4089 22.6212 15.5321 21.4734C14.7933 21.9369 13.9189 22.2053 12.9828 22.2053C11.7172 22.2053 10.5659 21.7152 9.70866 20.9161C8.97717 21.3664 8.11532 21.6265 7.19391 21.6265C4.54172 21.6265 2.39169 19.4765 2.39169 16.8243C2.39169 14.4155 4.16516 12.421 6.4776 12.0752C6.82784 8.47122 9.8658 5.65436 13.5617 5.65436C14.7693 5.65436 15.9067 5.95534 16.9029 6.48592C16.7057 6.95705 16.5689 7.45979 16.5024 7.98443C15.6468 7.45774 14.6398 7.15436 13.5617 7.15436C10.4591 7.15436 7.94392 9.6695 7.94391 12.7721L7.9439 13.5221H7.19391C5.37014 13.5221 3.89169 15.0005 3.89169 16.8243C3.89169 18.6481 5.37014 20.1265 7.19391 20.1265C8.0062 20.1265 8.74828 19.8342 9.32358 19.3481L9.91417 18.8492L10.395 19.4546C11.0011 20.218 11.9348 20.7053 12.9828 20.7053C13.8469 20.7053 14.6321 20.3744 15.2211 19.831L15.952 19.1568L16.3994 20.0447C16.9438 21.1249 18.0616 21.8632 19.3505 21.8632C20.2701 21.8632 21.1007 21.4883 21.7002 20.8813L22.1087 20.4676L22.6112 20.7601C23.1834 21.0932 23.8485 21.2843 24.5605 21.2843C26.704 21.2843 28.4416 19.5467 28.4416 17.4032C28.4416 15.5319 27.1173 13.97 25.3548 13.6034C25.8498 13.2876 26.2935 12.8986 26.6708 12.4516Z" fill="#999999"/>
<path d="M24.8067 2.66669C23.9383 3.34206 22.2017 5.09802 22.2017 6.7189M22.2017 6.7189L21.3333 7.00834M22.2017 6.7189L23.6489 7.29779" stroke="#999999" stroke-width="1.5"/>
<path d="M8.54229 17.9907C7.76886 18.4372 6.77987 18.1722 6.33333 17.3988C5.88679 16.6254 6.15179 15.6364 6.92522 15.1898" stroke="#999999" stroke-width="1.5"/>
<path d="M10 13.6667C10 11.2735 11.9401 9.33337 14.3333 9.33337" stroke="#999999" stroke-width="1.5"/>
</g>
</svg>
