<svg width="32" height="32" viewBox="0 0 32 32" fill="none" xmlns="http://www.w3.org/2000/svg">
<g opacity="0.5">
<path d="M27 20.2754L23.087 16.3624" stroke="#999999" stroke-width="1.5"/>
<path d="M25 22.3479L15.3768 12.7247" stroke="#999999" stroke-width="1.5"/>
<path d="M20.3333 22.348L10.1594 12.174" stroke="#999999" stroke-width="1.5"/>
<path d="M15 21.7006L7.95652 14.6571" stroke="#999999" stroke-width="1.5"/>
<path d="M10.7681 21.8405L6.07248 17.1449" stroke="#999999" stroke-width="1.5"/>
<path d="M2.66666 17.5363C2.66666 18.058 3.13622 19.5711 5.01448 21.4493C6.89274 23.3276 9.971 24.058 11.2754 24.1885C11.9275 24.1885 13.7014 24.1885 15.5797 24.1885C17.458 24.1885 19.4927 24.9711 20.4226 25.3624C21.8406 25.7537 21.8406 25.7537 23.0145 25.7537C26.5319 25.7537 29.2946 22.2747 29.632 20.2754M2.66666 17.5363C3.05796 14.7972 5.56231 9.31891 12.4493 9.31891C16.5188 9.31891 18.3188 10.8841 18.7101 11.6667C19.1014 12.4493 20.6509 13.4242 23.4058 14.0146C28.884 15.1885 29.6666 17.9276 29.6667 19.8841C29.6667 20.0087 29.6549 20.1395 29.632 20.2754M2.66666 17.5363V20.8748C2.66666 22.9965 3.50955 25.0314 5.00984 26.5317C5.29406 26.8159 5.56405 27.0859 5.79709 27.3189C6.73622 28.258 9.84057 28.7537 11.2754 28.8841H15.7877C17.9095 28.8841 20.0817 29.7057 22.1876 29.9643C22.6662 30.0231 23.202 30.058 23.7971 30.058C26.6145 30.058 28.8609 27.7102 29.632 26.5363V20.2754" stroke="#999999" stroke-width="1.5"/>
<path d="M25.7013 9.94207C25.1242 9.60447 23.9902 8.90976 23.97 7.68632C23.9385 5.77959 26.4902 5.44862 26.4902 3.5569C26.4902 2.54412 25.5372 1.96867 24.2667 1.33337" stroke="#999999" stroke-width="1.5"/>
<path d="M21.7643 8.89418C21.3279 8.62013 20.4704 8.05619 20.4551 7.06304C20.4313 5.51522 22.3608 5.24655 22.3608 3.71093C22.3608 2.88878 21.6402 2.42165 20.6794 1.90594" stroke="#999999" stroke-width="1.5"/>
</g>
</svg>
