<svg width="165" height="70" viewBox="0 0 165 70" fill="none" xmlns="http://www.w3.org/2000/svg">
<g clip-path="url(#clip0_375_9166)">
<path d="M163.822 48.892L147.469 0.00991197L62.0533 26.5776L62.0189 23.8231L1.43675 40.8523L5.05662 53.2729L61.8521 33.5764L62.2516 69.9304L163.822 48.892ZM141.685 5.83633C143.487 5.85508 145.168 7.23912 145.125 9.29899C145.106 11.0858 143.71 12.7532 141.634 12.7105C139.833 12.6918 138.152 11.3077 138.195 9.24787C138.238 7.188 139.884 5.81757 141.685 5.83633Z" fill="white"/>
<path d="M76.3968 51.0719C74.8708 51.0771 73.62 51.1061 72.7942 51.0344C72.094 51.1112 70.8433 51.1403 69.3173 51.1454L69.288 49.9047C70.6884 49.7511 71.5865 49.0036 72.2574 47.6861L79.2077 31.7805L80.7337 31.7753L87.6671 47.5101C87.7927 47.6586 87.9183 47.8071 88.1454 48.3771C88.2469 48.7986 88.4981 49.0956 88.8989 49.2679C89.2998 49.4403 89.8262 49.7611 90.652 49.8328L90.6813 51.0735C88.1798 51.1315 86.3785 51.1128 85.0022 50.9934C84.0267 51.0463 82.5007 51.0514 80.4242 51.0088L80.395 49.7681C81.0952 49.6913 81.7954 49.6144 82.2203 49.5138C82.6452 49.4131 82.9446 49.1639 82.8431 48.7424L82.8672 48.4693C82.8912 48.1962 82.7897 47.7747 82.6882 47.3532C82.5867 46.9317 82.4852 46.5101 82.234 46.2132C82.1325 45.7917 81.8813 45.4947 81.6542 44.9247L75.1253 45.0459C74.8019 45.5682 74.6281 45.9658 74.4544 46.3634C74.2806 46.7611 74.2565 47.0341 74.0828 47.4318C73.909 47.8294 73.8849 48.1025 74.0105 48.251C74.0639 49.2186 74.8415 49.8364 76.5172 49.7067L76.3968 51.0719ZM75.4969 43.9776L81.0504 43.9093L78.4267 37.4908L75.4969 43.9776Z" fill="#313435"/>
<path d="M92.0815 50.9201L92.0282 49.9525C92.7284 49.8757 93.1533 49.775 93.4527 49.5258C93.752 49.2767 93.7761 49.0036 93.8484 48.1844L93.7021 41.9809C93.6246 41.2863 93.5231 40.8648 93.272 40.5679C93.0208 40.2709 92.4702 40.2231 91.7941 40.0269L91.7408 39.0592C92.7162 39.0063 93.8414 38.8288 95.1162 38.5267C96.1158 38.2008 96.816 38.124 97.2409 38.0233L97.4491 40.3801C98.8443 38.7127 100.443 37.8884 102.244 37.9072C102.519 37.9311 102.794 37.9549 103.07 37.9788C105.122 38.2945 106.378 39.7793 106.287 42.3852L106.481 48.0426C106.559 48.7372 106.66 49.1588 106.786 49.3072C106.911 49.4557 107.462 49.5035 108.138 49.6997L108.191 50.6674C106.665 50.6725 105.289 50.5531 104.314 50.606C103.488 50.5343 102.237 50.5633 100.561 50.6931L100.508 49.7254C101.208 49.6486 101.633 49.5479 101.783 49.4233C102.082 49.1742 102.106 48.9011 102.029 48.2065L101.834 42.5491C101.757 41.8545 101.68 41.16 101.428 40.863C101.052 40.4176 100.651 40.2452 100.1 40.1975C100.1 40.1975 99.825 40.1736 99.4 40.2743C98.5502 40.4756 98.1011 40.8494 97.628 41.4962C97.1549 42.143 97.0827 42.9622 97.0104 43.7813L97.1756 48.198C97.1275 48.7442 97.229 49.1657 97.6298 49.3381C97.881 49.635 98.4315 49.6828 98.9821 49.7306L99.0354 50.6982C97.2342 50.6794 95.9834 50.7085 95.1576 50.6368C95.1336 50.9099 93.8828 50.9389 92.0815 50.9201Z" fill="#313435"/>
<path d="M121.351 50.8463L120.993 48.6141C119.747 50.1569 118.424 51.0051 116.623 50.9863C116.198 51.087 115.797 50.9146 115.247 50.8669C114.146 50.7713 113.344 50.4266 112.566 49.8088C111.789 49.191 111.311 48.3241 110.832 47.4571C110.504 46.4656 110.301 45.6225 110.247 44.6549C110.218 43.4142 110.464 42.1974 111.111 41.1529C111.758 40.1085 112.381 39.3371 113.404 38.738C114.428 38.139 115.427 37.813 116.528 37.9086C118.054 37.9035 119.532 38.4444 120.687 39.5076L120.642 33.7257C120.69 33.1795 120.439 32.8826 120.038 32.7102C119.637 32.5379 119.087 32.4901 118.261 32.4184L118.483 31.4747C121.134 31.292 123.384 30.937 124.934 30.6588L125.093 47.7317C125.194 48.1532 125.296 48.5748 125.571 48.5987C125.972 48.771 126.522 48.8188 127.073 48.8666L127.126 49.8342C125.175 49.9401 123.2 50.3189 121.351 50.8463ZM120.697 42.5351C120.769 41.716 120.417 40.9975 119.914 40.4036C119.412 39.8097 118.736 39.6135 117.91 39.5418C116.659 39.5708 116.06 40.0692 115.563 40.989C115.066 41.9089 114.97 43.0011 114.849 44.3664C114.849 44.3664 114.975 44.5149 114.825 44.6395C114.951 44.7879 114.801 44.9125 114.801 44.9125C114.855 45.8802 115.183 46.8717 115.536 47.5902C116.014 48.4571 116.69 48.6534 117.642 48.8735C118.617 48.8206 119.341 48.4707 119.814 47.8239C120.288 47.1771 120.485 46.5064 120.582 45.4142L120.697 42.5351Z" fill="#313435"/>
<path d="M133.732 50.4077L129.171 40.7945C128.944 40.2245 128.693 39.9275 128.568 39.7791C128.442 39.6306 128.316 39.4821 128.191 39.3336C128.065 39.1852 127.664 39.0128 127.239 39.1135L127.186 38.1459C128.437 38.1168 129.813 38.2363 131.214 38.0827C132.464 38.0536 133.715 38.0246 134.84 37.8471L134.894 38.8148C134.343 38.767 133.918 38.8677 133.619 39.1168C133.469 39.2414 133.319 39.366 133.295 39.6391C133.271 39.9121 133.397 40.0606 133.624 40.6306L135.919 46.0576L137.632 42.3542C138.004 41.2859 138.352 40.4906 138.4 39.9445C138.424 39.6714 138.298 39.523 138.448 39.3984C138.346 38.9768 137.796 38.9291 136.97 38.8574L136.917 37.8898C138.167 37.8607 138.993 37.9324 139.544 37.9802C140.094 38.028 141.07 37.975 142.045 37.9221L142.099 38.8898C141.674 38.9905 141.249 39.0912 140.949 39.3403C140.65 39.5895 140.327 40.1117 140.153 40.5094C139.829 41.0316 139.656 41.4292 139.308 42.2245C139.11 42.8952 138.937 43.2928 138.787 43.4174L134.168 53.3346C133.994 53.7322 133.82 54.1298 133.497 54.6521C133.173 55.1743 132.85 55.6965 132.676 56.0942C132.353 56.6164 132.053 56.8655 131.604 57.2393C131.155 57.613 130.856 57.8622 130.305 57.8144C130.305 57.8144 130.156 57.939 130.03 57.7905C130.03 57.7905 129.88 57.9151 129.755 57.7667C129.33 57.8673 128.929 57.695 128.678 57.398C128.427 57.1011 128.176 56.8041 128.074 56.3826C128.074 56.3826 128.074 56.3826 127.948 56.2341C127.997 55.688 128.17 55.2904 128.619 54.9166C129.068 54.5429 129.643 54.3176 130.343 54.2408C131.043 54.164 131.468 54.0633 131.642 53.6657C131.941 53.4165 132.115 53.0189 132.415 52.7697C132.588 52.372 132.912 51.8498 133.11 51.1791C133.559 50.8054 133.858 50.5562 133.732 50.4077Z" fill="#313435"/>
<path d="M143.9 38.9083L143.871 37.6676C144.697 37.7392 145.421 37.3894 146.145 37.0395C146.869 36.6896 147.217 35.8944 147.265 35.3483C147.313 34.8021 147.062 34.5052 146.512 34.4574C145.811 34.5342 145.135 34.338 144.483 33.8687C143.831 33.3994 143.604 32.8293 143.652 32.2832C143.575 31.5886 143.898 31.0664 144.371 30.4196C144.97 29.9213 145.545 29.696 146.245 29.6192C147.22 29.5663 148.148 30.0595 148.776 30.8018C149.404 31.5442 149.732 32.5357 149.636 33.628C149.617 35.4148 149.096 36.6077 147.898 37.6044C147.126 38.5004 145.701 38.927 143.9 38.9083Z" fill="#313435"/>
<path d="M151.069 50.399C151.141 49.5798 151.064 48.8852 151.112 48.3391C151.16 47.793 151.083 47.0984 151.005 46.4038L151.981 46.3509C152.184 47.1939 152.812 47.9363 153.59 48.5541C154.367 49.1719 155.169 49.5166 155.995 49.5883C156.27 49.6122 156.695 49.5115 156.845 49.3869C157.844 49.0609 158.293 48.6872 158.216 47.9926C158.24 47.7195 158.138 47.298 157.887 47.001C157.636 46.7041 157.235 46.5317 156.709 46.2109C156.583 46.0624 156.032 46.0146 155.356 45.8184C154.68 45.6221 154.004 45.4259 153.603 45.2535C153.202 45.0812 152.676 44.7603 152.275 44.588C151.874 44.4156 151.497 43.9702 151.396 43.5486C151.169 42.9786 150.942 42.4086 150.99 41.8625C150.937 40.8949 151.284 40.0996 151.757 39.4528C152.081 38.9306 152.679 38.4322 153.254 38.207C153.978 37.8571 154.678 37.7803 155.504 37.852C157.03 37.8468 158.107 38.2154 158.885 38.8332L159.382 37.9133L160.483 38.0089C160.585 38.4304 160.536 38.9765 160.464 39.7957C160.392 40.6149 160.469 41.3095 160.445 41.5825L159.344 41.487C158.991 40.7685 158.489 40.1746 157.837 39.7053C157.185 39.236 156.383 38.8913 155.683 38.9681C155.408 38.9442 154.983 39.0449 154.558 39.1456C154.283 39.1217 153.983 39.3709 153.959 39.6439C153.66 39.8931 153.636 40.1661 153.612 40.4392C153.713 40.8607 153.964 41.1577 154.216 41.4546C154.616 41.627 155.143 41.9478 155.969 42.0195C157.046 42.3881 157.847 42.7328 158.524 42.9291C159.2 43.1253 159.852 43.5946 160.228 44.04C160.731 44.6339 161.084 45.3524 160.987 46.4446C160.915 47.2638 160.843 48.083 160.37 48.7298C159.897 49.3766 159.298 49.8749 158.574 50.2248C157.849 50.5747 156.999 50.776 156.024 50.829C154.498 50.8341 153.146 50.4416 152.242 49.6753L151.871 50.7437L151.069 50.399Z" fill="#313435"/>
</g>
<defs>
<clipPath id="clip0_375_9166">
<rect width="165" height="70" fill="white"/>
</clipPath>
</defs>
</svg>
