<svg width="112" height="34" viewBox="0 0 112 34" fill="none" xmlns="http://www.w3.org/2000/svg">
<g clip-path="url(#clip0_151_1359)">
<path d="M8.39492 24.2156C6.54893 24.1717 5.14245 24.1277 4.1755 24.1277C3.29646 24.1277 1.88999 24.1717 3.71422e-05 24.2156L3.72017e-05 22.8531C1.62627 22.6773 2.76904 21.7982 3.47228 20.216L11.9551 1.22858L13.7131 1.22858L21.6246 20.216C21.7564 20.3478 21.9322 20.6555 22.152 21.139C22.3717 21.6224 22.6794 22.018 23.1189 22.3257C23.5584 22.6333 24.2177 22.8091 25.2286 22.897L25.2286 24.2596C22.2399 24.2156 20.0423 24.1717 18.5479 24.1717C17.3172 24.1717 15.5152 24.2156 13.0978 24.2596L13.0978 22.897C14.0208 22.8531 14.724 22.7652 15.2515 22.6773C15.7789 22.5454 16.0426 22.2378 16.0866 21.7543L16.0866 21.5345C16.0866 21.1389 15.9987 20.6994 15.8668 20.216C15.691 19.6885 15.5152 19.205 15.3394 18.7655C15.1636 18.2821 14.9438 17.7986 14.724 17.2712L6.85659 17.2712C6.59288 17.8865 6.32916 18.4139 6.15335 18.8534C5.97754 19.293 5.80174 19.6885 5.71383 20.0841C5.58198 20.4797 5.53802 20.8313 5.53802 21.1389C5.53802 22.3257 6.50498 22.941 8.43888 22.9849L8.43888 24.2156L8.39492 24.2156ZM7.55983 15.601L14.0648 15.601L10.9881 7.77746L7.55983 15.601Z" fill="white"/>
<path d="M27.1626 24.2156L27.1626 23.0289C28.0416 22.9849 28.613 22.8531 28.9207 22.6333C29.1844 22.4135 29.3602 21.9301 29.3602 21.1389L29.3602 13.667C29.3602 12.788 29.2283 12.2166 28.9207 11.9529C28.613 11.6892 28.0416 11.5134 27.1626 11.4255L27.1626 10.1948C28.2614 10.1509 29.6239 9.93111 31.1622 9.62344C32.3489 9.27182 33.228 9.13997 33.7115 9.13997L33.8873 11.9969C35.5574 10.063 37.4913 9.05206 39.689 9.05206C39.9527 9.05206 40.3043 9.09602 40.7878 9.13997C43.337 9.57949 44.6116 11.3376 44.6116 14.4142L44.6116 21.1829C44.6116 21.9301 44.7435 22.4575 45.0072 22.6333C45.2709 22.8531 45.8423 22.9849 46.6774 23.0728L46.6774 24.2595C44.7435 24.2156 43.2491 24.1716 42.1942 24.1716C41.1833 24.1716 39.689 24.2156 37.7111 24.2595L37.7111 23.0728C38.5023 23.0728 39.0297 22.941 39.2934 22.6773C39.5571 22.4135 39.689 21.9301 39.689 21.1829L39.689 14.3703C39.689 13.5352 39.5131 12.832 39.2055 12.3045C38.8539 11.7771 38.3704 11.4694 37.6232 11.4694C37.4913 11.4694 37.2716 11.5134 36.92 11.5573C35.997 11.7332 35.2937 12.2606 34.8542 13.0517C34.4147 13.8429 34.1949 14.7659 34.1949 15.7328L34.1949 21.0071C34.151 21.0071 34.151 21.051 34.151 21.1389C34.151 21.8422 34.3268 22.3256 34.6345 22.6333C34.9421 22.941 35.5135 23.0728 36.2607 23.0728L36.2607 24.2595C34.2389 24.2156 32.7445 24.1716 31.7336 24.1716C30.6787 24.1716 29.1404 24.1716 27.1626 24.2156Z" fill="white"/>
<path d="M61.7969 24.5232L61.4453 21.8421C60.0828 23.6442 58.3247 24.5672 56.2589 24.5672C55.7315 24.5672 55.2041 24.5232 54.6766 24.4353C53.446 24.2595 52.3911 23.82 51.556 23.0728C50.677 22.3256 50.0616 21.4026 49.6221 20.3038C49.1826 19.205 48.9628 18.1062 48.9189 16.9195C48.9189 16.9195 48.9189 16.8755 48.9189 16.8316C48.9189 16.7876 48.9189 16.7876 48.9189 16.7437C48.9189 15.2493 49.2705 13.8868 49.9737 12.7001C50.677 11.5134 51.6439 10.5904 52.7867 9.93108C53.9734 9.2718 55.2041 8.92018 56.4787 8.92018C58.3247 8.92018 59.9949 9.57947 61.4013 10.942L61.4013 4.08544C61.4013 3.3822 61.1816 2.94268 60.742 2.76687C60.3025 2.59106 59.5993 2.4592 58.6763 2.41525L58.6763 1.22854C61.9288 1.09668 64.478 0.789017 66.2361 0.305542L66.2361 20.6994C66.2361 21.2268 66.4558 21.6224 66.8514 21.7542C67.247 21.9301 67.8184 22.018 68.5656 22.1059L68.5656 23.2486C66.28 23.5123 64.0385 23.9519 61.7969 24.5232ZM61.3134 14.59C61.3134 13.6231 61.0058 12.788 60.3904 12.1287C59.7751 11.4694 58.984 11.1178 57.9731 11.1178L57.9291 11.1178C56.5666 11.1617 55.5996 11.7331 55.0722 12.8759C54.5448 14.0186 54.2371 15.3372 54.2371 16.8755C54.2371 16.9195 54.2371 17.0514 54.2371 17.1832C54.2371 17.359 54.2371 17.4469 54.2371 17.5348C54.2811 18.7655 54.5448 19.8643 55.0722 20.7873C55.5996 21.7542 56.4347 22.1938 57.5775 22.1938C57.5775 22.1938 57.6214 22.1938 57.6654 22.1938C57.7093 22.1938 57.7533 22.1938 57.7533 22.1938C58.94 22.1498 59.8191 21.7982 60.3465 21.051C60.9179 20.3478 61.2255 19.3808 61.2255 18.2381L61.2255 14.59L61.3134 14.59Z" fill="white"/>
<path d="M76.5649 24.2595L71.2906 12.6561C70.9829 11.9529 70.7632 11.5573 70.6753 11.3375C70.5874 11.1617 70.4116 10.9859 70.1478 10.8541C69.8841 10.7222 69.4886 10.5904 68.9611 10.5024L68.9611 9.31573C70.4995 9.40364 72.0817 9.44759 73.708 9.44759C75.1584 9.44759 76.6088 9.40364 78.0153 9.31573L78.0153 10.5024C77.3121 10.5464 76.8286 10.6343 76.5209 10.7222C76.2133 10.8541 76.0814 11.0738 76.0814 11.3815C76.0814 11.6452 76.1693 12.0408 76.3891 12.5242L79.0701 19.1171L81.1799 14.7219C81.7512 13.4033 82.015 12.4363 82.015 11.821C82.015 11.5133 82.015 11.2936 81.971 11.1617C81.7952 10.7222 81.1799 10.5024 80.125 10.5024L80.125 9.31573C81.5315 9.35969 82.5863 9.40364 83.2456 9.40364C83.9049 9.40364 84.9598 9.35969 86.2783 9.31573L86.2783 10.5024C85.7948 10.5464 85.3114 10.7662 84.9158 11.1617C84.5202 11.5573 84.1686 11.9968 83.8609 12.5682C83.5533 13.1396 83.2456 13.7989 82.9379 14.59C82.6303 15.3811 82.4105 15.8207 82.3226 16.0404L76.6528 27.8636C76.433 28.3031 76.1693 28.8745 75.8616 29.5338C75.554 30.1931 75.2024 30.7644 74.8507 31.3358C74.4991 31.8632 74.1035 32.3467 73.664 32.7423C73.2245 33.1379 72.6971 33.4016 72.1696 33.4895C72.1257 33.4895 71.9938 33.4895 71.862 33.4895C71.7301 33.4895 71.6422 33.4895 71.6422 33.4895C71.1148 33.4895 70.6313 33.3137 70.2357 33.006C69.8402 32.6983 69.6204 32.3028 69.6204 31.8193C69.6204 31.7753 69.6204 31.7314 69.6204 31.6874C69.6204 31.6435 69.6204 31.5556 69.6204 31.5556C69.6204 30.8963 69.9281 30.3689 70.4995 29.9733C71.0708 29.5777 71.7741 29.358 72.5652 29.2701C73.3564 29.1822 73.9277 28.9624 74.1914 28.6547C74.4991 28.3471 74.7628 27.9954 75.0265 27.512C75.2903 27.0285 75.6419 26.4132 75.9935 25.622C76.3012 24.7869 76.5209 24.3474 76.5649 24.2595Z" fill="white"/>
<path d="M88.344 15.1614L93.1348 19.2929L102.057 3.77778L93.8381 0.217651L87.465 14.3263L87.1134 14.0187L82.3665 23.7761L84.4323 24.743L88.344 15.1614ZM93.3106 10.063C93.882 10.019 94.4094 9.8432 94.8929 9.49158C95.3764 9.13996 95.5961 8.70044 95.5961 8.17301C95.5522 7.77744 95.3764 7.55768 94.9808 7.60163C94.4534 7.64558 94.0139 7.51373 93.6183 7.25001C93.2227 6.9863 93.003 6.59073 92.959 6.10725C92.9151 5.62378 93.0909 5.18426 93.4425 4.78869C93.7941 4.43707 94.2336 4.21731 94.7611 4.17335C95.5082 4.1294 96.0796 4.34916 96.5191 4.92054C96.9587 5.44797 97.2224 6.10725 97.2663 6.81049C97.3542 7.9972 97.0026 8.96415 96.2994 9.66739C95.5522 10.3706 94.5852 10.8101 93.3106 10.898L93.3106 10.063Z" fill="white"/>
<path d="M99.3322 24.3914C99.3761 23.2926 99.4201 22.4575 99.4201 21.8861C99.4201 21.3148 99.3761 20.4797 99.3322 19.4248L100.607 19.4248C100.958 20.4357 101.574 21.3148 102.453 22.0619C103.332 22.8091 104.299 23.2047 105.31 23.2047C105.705 23.2047 106.101 23.1168 106.452 22.9849C107.551 22.6773 108.123 22.1059 108.123 21.3148C108.123 20.8752 107.947 20.4797 107.639 20.0841C107.288 19.6885 106.848 19.3809 106.277 19.205C106.101 19.1171 105.617 18.9853 104.782 18.7216C103.991 18.4579 103.288 18.1941 102.716 17.9744C102.145 17.7107 101.618 17.447 101.178 17.0953C100.739 16.7877 100.343 16.3921 100.079 15.9086C99.7277 15.2493 99.5519 14.5461 99.5519 13.8429C99.5519 12.788 99.8596 11.7771 100.475 10.8981C100.914 10.2388 101.53 9.75531 102.321 9.44765C103.112 9.09603 104.035 8.96417 104.958 8.96417C106.628 8.96417 107.947 9.40369 108.958 10.2388L109.617 9.13998L110.936 9.13998C110.892 9.62346 110.892 10.3706 110.892 11.3815C110.892 12.3485 110.892 13.0957 110.936 13.5792L109.617 13.5792C109.265 12.7441 108.694 11.9969 107.903 11.3376C107.068 10.6783 106.233 10.3706 105.31 10.3706C104.914 10.3706 104.519 10.4585 104.079 10.5904C103.727 10.7223 103.464 10.8981 103.244 11.2057C103.024 11.5134 102.892 11.7771 102.892 12.0848C102.892 12.0848 102.892 12.1287 102.892 12.1727C102.892 12.2166 102.892 12.2606 102.892 12.3045C102.98 12.832 103.244 13.2275 103.683 13.4473C104.123 13.6671 104.782 13.8868 105.705 14.1505C106.936 14.5461 107.947 14.8977 108.738 15.2933C109.529 15.6449 110.188 16.1723 110.716 16.7877C111.375 17.5349 111.683 18.5018 111.683 19.6885C111.683 20.6994 111.419 21.5785 110.892 22.3257C110.408 23.0728 109.661 23.6003 108.694 23.9958C107.727 24.3914 106.716 24.5672 105.617 24.5672C103.727 24.5672 102.233 24.0837 101.09 23.1168L100.563 24.3035L99.3322 24.3035L99.3322 24.3914Z" fill="white"/>
</g>
<defs>
<clipPath id="clip0_151_1359">
<rect width="33.5647" height="112" fill="white" transform="translate(112 0.217651) rotate(90)"/>
</clipPath>
</defs>
</svg>
