<svg width="107" height="32" viewBox="0 0 107 32" fill="none" xmlns="http://www.w3.org/2000/svg">
<g clip-path="url(#clip0_190_2397)">
<path d="M8.00375 22.8793C6.24381 22.8374 4.9029 22.7955 3.98102 22.7955C3.14295 22.7955 1.80205 22.8374 0.000203128 22.8793L0.000203185 21.5803C1.55063 21.4126 2.64012 20.5746 3.31058 19.0661L11.3979 0.963806L13.0741 0.963806L20.6167 19.0661C20.7424 19.1918 20.91 19.4851 21.1195 19.946C21.329 20.407 21.6223 20.7841 22.0414 21.0774C22.4604 21.3707 23.089 21.5384 24.0527 21.6222L24.0527 22.9212C21.2033 22.8793 19.1081 22.8374 17.6834 22.8374C16.5101 22.8374 14.7921 22.8793 12.4874 22.9212L12.4874 21.6222C13.3674 21.5803 14.0378 21.4965 14.5407 21.4126C15.0435 21.2869 15.2949 20.9936 15.3368 20.5327L15.3368 20.3232C15.3368 19.946 15.253 19.527 15.1273 19.0661C14.9597 18.5632 14.7921 18.1023 14.6245 17.6832C14.4569 17.2223 14.2473 16.7614 14.0378 16.2585L6.53713 16.2585C6.28571 16.8452 6.03429 17.348 5.86667 17.7671C5.69906 18.1861 5.53145 18.5632 5.44764 18.9403C5.32193 19.3175 5.28003 19.6527 5.28003 19.946C5.28003 21.0774 6.20191 21.6641 8.04565 21.706L8.04565 22.8793L8.00375 22.8793ZM7.20759 14.6662L13.4093 14.6662L10.476 7.20741L7.20759 14.6662Z" fill="white"/>
<path d="M25.8964 22.8792L25.8964 21.7478C26.7344 21.7059 27.2792 21.5802 27.5725 21.3707C27.8239 21.1612 27.9915 20.7002 27.9915 19.946L27.9915 12.8224C27.9915 11.9843 27.8658 11.4396 27.5725 11.1882C27.2792 10.9367 26.7344 10.7691 25.8964 10.6853L25.8964 9.51203C26.944 9.47013 28.243 9.26061 29.7096 8.96729C30.841 8.63206 31.679 8.50635 32.14 8.50635L32.3076 11.2301C33.8999 9.38632 35.7437 8.42255 37.8388 8.42255C38.0903 8.42255 38.4255 8.46445 38.8864 8.50635C41.3168 8.92539 42.532 10.6015 42.532 13.5348L42.532 19.9879C42.532 20.7002 42.6577 21.2031 42.9091 21.3707C43.1606 21.5802 43.7053 21.7059 44.5015 21.7897L44.5015 22.9211C42.6577 22.8792 41.233 22.8373 40.2273 22.8373C39.2635 22.8373 37.8388 22.8792 35.9532 22.9211L35.9532 21.7897C36.7074 21.7897 37.2103 21.664 37.4617 21.4126C37.7131 21.1612 37.8388 20.7002 37.8388 19.9879L37.8388 13.4929C37.8388 12.6967 37.6712 12.0262 37.3779 11.5234C37.0427 11.0206 36.5817 10.7272 35.8694 10.7272C35.7437 10.7272 35.5341 10.7691 35.1989 10.811C34.3189 10.9787 33.6485 11.4815 33.2295 12.2358C32.8104 12.99 32.6009 13.87 32.6009 14.7919L32.6009 19.8203C32.559 19.8203 32.559 19.8622 32.559 19.946C32.559 20.6164 32.7266 21.0774 33.0199 21.3707C33.3133 21.664 33.858 21.7897 34.5704 21.7897L34.5704 22.9211C32.6428 22.8792 31.2181 22.8373 30.2543 22.8373C29.2486 22.8373 27.782 22.8373 25.8964 22.8792Z" fill="white"/>
<path d="M58.916 23.1726L58.5808 20.6164C57.2818 22.3345 55.6057 23.2145 53.6362 23.2145C53.1334 23.2145 52.6305 23.1726 52.1277 23.0887C50.9544 22.9211 49.9487 22.5021 49.1525 21.7897C48.3145 21.0774 47.7278 20.1974 47.3088 19.1498C46.8898 18.1022 46.6802 17.0547 46.6383 15.9233C46.6383 15.9233 46.6383 15.8814 46.6383 15.8395C46.6383 15.7976 46.6383 15.7976 46.6383 15.7557C46.6383 14.3309 46.9736 13.0319 47.644 11.9005C48.3145 10.7692 49.2363 9.88919 50.3258 9.26064C51.4572 8.63209 52.6305 8.29686 53.8457 8.29686C55.6057 8.29686 57.198 8.92541 58.5389 10.2244L58.5389 3.68749C58.5389 3.01704 58.3294 2.598 57.9103 2.43039C57.4913 2.26278 56.8209 2.13707 55.9409 2.09516L55.9409 0.963771C59.0417 0.838061 61.4721 0.544738 63.1483 0.0838012L63.1483 19.527C63.1483 20.0298 63.3578 20.4069 63.7349 20.5326C64.112 20.7003 64.6568 20.7841 65.3691 20.8679L65.3691 21.9574C63.1902 22.2088 61.0531 22.6278 58.916 23.1726ZM58.4551 13.7024C58.4551 12.7805 58.1618 11.9844 57.5751 11.3558C56.9885 10.7273 56.2342 10.392 55.2704 10.392L55.2285 10.392C53.9295 10.4339 53.0077 10.9787 52.5048 12.0682C52.002 13.1576 51.7086 14.4148 51.7086 15.8814C51.7086 15.9233 51.7086 16.049 51.7086 16.1747C51.7086 16.3423 51.7086 16.4261 51.7086 16.5099C51.7505 17.6832 52.002 18.7308 52.5048 19.6108C53.0077 20.5326 53.8038 20.9517 54.8933 20.9517C54.8933 20.9517 54.9352 20.9517 54.9771 20.9517C55.019 20.9517 55.0609 20.9517 55.0609 20.9517C56.1923 20.9098 57.0304 20.5745 57.5332 19.8622C58.078 19.1917 58.3713 18.2699 58.3713 17.1804L58.3713 13.7024L58.4551 13.7024Z" fill="white"/>
<path d="M72.9957 22.9211L67.9673 11.8586C67.674 11.1882 67.4645 10.811 67.3807 10.6015C67.2969 10.4339 67.1292 10.2663 66.8778 10.1406C66.6264 10.0149 66.2493 9.88915 65.7464 9.80534L65.7464 8.67395C67.213 8.75776 68.7216 8.79966 70.272 8.79966C71.6548 8.79966 73.0376 8.75776 74.3785 8.67395L74.3785 9.80534C73.7081 9.84724 73.2471 9.93105 72.9538 10.0149C72.6605 10.1406 72.5348 10.3501 72.5348 10.6434C72.5348 10.8948 72.6186 11.272 72.8281 11.7329L75.3842 18.0184L77.3956 13.8281C77.9403 12.571 78.1917 11.6491 78.1917 11.0624C78.1917 10.7691 78.1917 10.5596 78.1498 10.4339C77.9822 10.0149 77.3956 9.80534 76.3899 9.80534L76.3899 8.67395C77.7308 8.71585 78.7365 8.75776 79.365 8.75776C79.9936 8.75776 80.9992 8.71585 82.2563 8.67395L82.2563 9.80534C81.7954 9.84724 81.3345 10.0568 80.9573 10.4339C80.5802 10.811 80.245 11.2301 79.9517 11.7748C79.6583 12.3195 79.365 12.9481 79.0717 13.7024C78.7784 14.4566 78.5689 14.8756 78.485 15.0852L73.0795 26.3572C72.87 26.7762 72.6186 27.3209 72.3253 27.9495C72.0319 28.578 71.6967 29.1228 71.3615 29.6675C71.0262 30.1704 70.6491 30.6313 70.2301 31.0084C69.8111 31.3856 69.3082 31.637 68.8054 31.7208C68.7635 31.7208 68.6378 31.7208 68.512 31.7208C68.3863 31.7208 68.3025 31.7208 68.3025 31.7208C67.7997 31.7208 67.3388 31.5532 66.9616 31.2599C66.5845 30.9665 66.375 30.5894 66.375 30.1285C66.375 30.0866 66.375 30.0447 66.375 30.0028C66.375 29.9609 66.375 29.8771 66.375 29.8771C66.375 29.2485 66.6683 28.7457 67.213 28.3685C67.7578 27.9914 68.4282 27.7819 69.1825 27.6981C69.9368 27.6143 70.4815 27.4048 70.7329 27.1114C71.0262 26.8181 71.2777 26.4829 71.5291 26.0219C71.7805 25.561 72.1157 24.9744 72.451 24.2201C72.7443 23.4239 72.9538 23.0049 72.9957 22.9211Z" fill="white"/>
<path d="M84.226 14.2471L88.7934 18.1861L97.2998 3.39417L89.4639 -3.42519e-07L83.3879 13.451L83.0527 13.1577L78.5271 22.4602L80.4966 23.3821L84.226 14.2471ZM88.961 9.38635C89.5058 9.34445 90.0086 9.17683 90.4696 8.84161C90.9305 8.50638 91.14 8.08735 91.14 7.58451C91.0981 7.20738 90.9305 6.99786 90.5534 7.03976C90.0505 7.08167 89.6315 6.95596 89.2544 6.70454C88.8772 6.45312 88.6677 6.07599 88.6258 5.61505C88.5839 5.15411 88.7515 4.73508 89.0867 4.35795C89.422 4.02272 89.841 3.81321 90.3438 3.7713C91.0562 3.7294 91.6009 3.93892 92.02 4.48366C92.439 4.9865 92.6904 5.61505 92.7323 6.2855C92.8161 7.41689 92.4809 8.33877 91.8105 9.00922C91.0981 9.67968 90.1762 10.0987 88.961 10.1825L88.961 9.38635Z" fill="white"/>
<path d="M94.7017 23.0468C94.7436 21.9992 94.7855 21.2031 94.7855 20.6583C94.7855 20.1136 94.7436 19.3174 94.7017 18.3117L95.9169 18.3117C96.2521 19.2755 96.8388 20.1136 97.6769 20.8259C98.5149 21.5383 99.4368 21.9154 100.401 21.9154C100.778 21.9154 101.155 21.8316 101.49 21.7059C102.538 21.4126 103.082 20.8678 103.082 20.1136C103.082 19.6946 102.915 19.3174 102.621 18.9403C102.286 18.5632 101.867 18.2698 101.322 18.1022C101.155 18.0184 100.694 17.8927 99.8977 17.6413C99.1435 17.3899 98.473 17.1384 97.9283 16.9289C97.3835 16.6775 96.8807 16.4261 96.4617 16.0909C96.0426 15.7975 95.6655 15.4204 95.4141 14.9595C95.0788 14.3309 94.9112 13.6605 94.9112 12.99C94.9112 11.9843 95.2046 11.0206 95.7912 10.1825C96.2102 9.55394 96.7969 9.093 97.5511 8.79968C98.3054 8.46445 99.1854 8.33874 100.065 8.33874C101.658 8.33874 102.915 8.75778 103.879 9.55394L104.507 8.50636L105.764 8.50636C105.722 8.96729 105.722 9.67965 105.722 10.6434C105.722 11.5653 105.722 12.2777 105.764 12.7386L104.507 12.7386C104.172 11.9424 103.627 11.2301 102.873 10.6015C102.077 9.97297 101.281 9.67965 100.401 9.67965C100.023 9.67965 99.6463 9.76346 99.2273 9.88917C98.8921 10.0149 98.6406 10.1825 98.4311 10.4758C98.2216 10.7691 98.0959 11.0206 98.0959 11.3139C98.0959 11.3139 98.0959 11.3558 98.0959 11.3977C98.0959 11.4396 98.0959 11.4815 98.0959 11.5234C98.1797 12.0262 98.4311 12.4034 98.8502 12.6129C99.2692 12.8224 99.8977 13.0319 100.778 13.2833C101.951 13.6605 102.915 13.9957 103.669 14.3728C104.423 14.7081 105.052 15.2109 105.555 15.7975C106.183 16.5099 106.477 17.4318 106.477 18.5632C106.477 19.5269 106.225 20.365 105.722 21.0774C105.261 21.7897 104.549 22.2926 103.627 22.6697C102.705 23.0468 101.741 23.2144 100.694 23.2144C98.8921 23.2144 97.4673 22.7535 96.3779 21.8316L95.875 22.963L94.7017 22.963L94.7017 23.0468Z" fill="white"/>
</g>
<defs>
<clipPath id="clip0_190_2397">
<rect width="32" height="106.779" fill="white" transform="translate(106.779) rotate(90)"/>
</clipPath>
</defs>
</svg>
