<svg width="32" height="32" viewBox="0 0 32 32" fill="none" xmlns="http://www.w3.org/2000/svg">
<g opacity="0.5">
<path d="M2.66669 2.33331L4.33335 3.99998M30 29.6666L24.6667 24" stroke="#999999" stroke-width="1.5"/>
<path fill-rule="evenodd" clip-rule="evenodd" d="M11.8162 7.10297C11.407 5.78802 10.1804 4.83331 8.73077 4.83331C6.94646 4.83331 5.5 6.27978 5.5 8.06408C5.5 9.51368 6.45471 10.7403 7.76967 11.1495C7.67554 11.5503 7.62575 11.9682 7.62575 12.3977C7.62575 12.4879 7.62795 12.5775 7.63229 12.6666C5.54928 12.1713 4 10.2986 4 8.06408C4 5.45135 6.11804 3.33331 8.73077 3.33331C10.9653 3.33331 12.8381 4.88259 13.3334 6.96559C13.2442 6.96125 13.1546 6.95906 13.0644 6.95906C12.6349 6.95906 12.217 7.00885 11.8162 7.10297Z" fill="#999999"/>
<path fill-rule="evenodd" clip-rule="evenodd" d="M17.1496 12.4363C16.7404 11.1213 15.5138 10.1666 14.0641 10.1666C12.2798 10.1666 10.8334 11.6131 10.8334 13.3974C10.8334 14.847 11.7881 16.0736 13.103 16.4828C13.0089 16.8836 12.9591 17.3015 12.9591 17.731C12.9591 17.8212 12.9613 17.9108 12.9657 18C10.8827 17.5047 9.33337 15.632 9.33337 13.3974C9.33337 10.7847 11.4514 8.66663 14.0641 8.66663C16.2987 8.66663 18.1714 10.2159 18.6667 12.2989C18.5776 12.2946 18.4879 12.2924 18.3978 12.2924C17.9682 12.2924 17.5504 12.3422 17.1496 12.4363Z" fill="#999999"/>
<path fill-rule="evenodd" clip-rule="evenodd" d="M22.4829 17.7696C22.0737 16.4547 20.8471 15.5 19.3975 15.5C17.6132 15.5 16.1667 16.9464 16.1667 18.7307C16.1667 20.1803 17.1214 21.407 18.4364 21.8161C18.3422 22.2169 18.2924 22.6348 18.2924 23.0643C18.2924 23.1545 18.2946 23.2442 18.299 23.3333C16.216 22.838 14.6667 20.9653 14.6667 18.7307C14.6667 16.118 16.7847 14 19.3975 14C21.632 14 23.5047 15.5492 24 17.6322C23.9109 17.6279 23.8213 17.6257 23.7311 17.6257C23.3016 17.6257 22.8837 17.6755 22.4829 17.7696Z" fill="#999999"/>
<path fill-rule="evenodd" clip-rule="evenodd" d="M27.8334 24C27.8334 25.7489 26.4156 27.1666 24.6667 27.1666C22.9178 27.1666 21.5 25.7489 21.5 24C21.5 22.2511 22.9178 20.8333 24.6667 20.8333C26.4156 20.8333 27.8334 22.2511 27.8334 24ZM29.3334 24C29.3334 26.5773 27.244 28.6666 24.6667 28.6666C22.0893 28.6666 20 26.5773 20 24C20 21.4227 22.0893 19.3333 24.6667 19.3333C27.244 19.3333 29.3334 21.4227 29.3334 24Z" fill="#999999"/>
<path d="M27.2465 11.2753C26.6694 10.9377 25.5354 10.243 25.5152 9.01957C25.4836 7.11284 28.0353 6.78187 28.0353 4.89016C28.0353 3.87737 27.0824 3.30192 25.8118 2.66663" stroke="#999999" stroke-width="1.5"/>
<path d="M23.3094 10.2274C22.873 9.95338 22.0155 9.38944 22.0002 8.39629C21.9764 6.84847 23.9059 6.57981 23.9059 5.04418C23.9059 4.22203 23.1853 3.75491 22.2245 3.2392" stroke="#999999" stroke-width="1.5"/>
</g>
</svg>
