<svg width="72" height="72" viewBox="0 0 72 72" fill="none" xmlns="http://www.w3.org/2000/svg">
<g clip-path="url(#clip0_159_2136)">
<path d="M63.6 9.92544L39.3364 0.298584L22.0473 41.8512L20.9668 40.9671L8 69.8477L13.9922 72.5L24.6996 44.2088L38.9435 55.8986L63.6 9.92544ZM39.7293 4.42438C40.3187 3.73675 41.3993 3.54028 42.1852 4.22791C42.8728 4.81731 43.0693 5.89788 42.3816 6.68374C41.7922 7.37138 40.7117 7.56784 39.9258 6.88021C39.1399 6.19258 39.1399 5.11201 39.7293 4.42438Z" fill="black"/>
<path d="M36.193 44.307C35.7018 44.8964 35.3089 45.3876 35.0142 45.6823C34.8177 45.977 34.4248 46.4681 33.9336 47.0575L33.4424 46.6646C33.8354 46.0752 33.8354 45.4858 33.5407 44.7982L29.6113 36.9395L30.1025 36.3501L38.4523 38.8059C38.5506 38.8059 38.6488 38.8059 38.9435 38.9042C39.1399 39.0024 39.3364 39.0024 39.5329 38.9042C39.7293 38.8059 40.024 38.7077 40.3187 38.413L40.8099 38.8059C40.024 39.7883 39.4346 40.4759 38.9435 40.9671C38.6488 41.36 38.1576 41.9494 37.47 42.7353L36.9788 42.3423C37.1753 42.0476 37.3718 41.7529 37.47 41.5565C37.5682 41.36 37.5682 41.1635 37.3717 41.0653L37.2735 40.9671C37.1753 40.8688 36.9788 40.7706 36.7824 40.6724C36.5859 40.5741 36.3894 40.4759 36.193 40.4759C35.9965 40.3777 35.8 40.3777 35.5053 40.2794L33.4424 42.8335C33.5407 43.1282 33.6389 43.3247 33.7371 43.5211C33.8354 43.7176 33.9336 43.8158 34.0318 44.0123C34.1301 44.2088 34.2283 44.307 34.3265 44.307C34.7195 44.6017 35.2106 44.5035 35.7018 43.8158L36.193 44.307ZM33.1477 42.3423L34.9159 40.1812L31.576 39.1006L33.1477 42.3423Z" fill="white"/>
<path d="M41.2029 38.2166L40.8099 37.9219C41.0064 37.6272 41.1046 37.4307 41.1046 37.2342C41.1046 37.0378 41.0064 36.9395 40.7117 36.6448L38.2559 34.6802C37.9612 34.4837 37.7647 34.3855 37.5682 34.3855C37.3718 34.3855 37.1753 34.5819 36.8806 34.7784L36.4877 34.4837C36.7824 34.0908 37.0771 33.5996 37.3718 33.0102C37.5682 32.519 37.7647 32.2243 37.8629 32.0279L38.8453 32.7155C38.6488 31.6349 38.8453 30.7508 39.4347 30.0632C39.5329 29.965 39.6311 29.8667 39.7294 29.7685C40.5152 29.0809 41.4976 29.0809 42.4799 29.965L44.7393 31.7332C45.034 31.9296 45.2304 32.0279 45.3287 32.0279C45.4269 32.0279 45.6234 31.8314 45.9181 31.6349L46.311 31.9296C45.8198 32.519 45.3287 33.0102 45.034 33.4031C44.7393 33.6978 44.3463 34.189 43.8552 34.8766L43.4622 34.5819C43.6587 34.2872 43.7569 34.0908 43.7569 33.9925C43.7569 33.7961 43.6587 33.6978 43.364 33.5014L41.1046 31.7332C40.8099 31.5367 40.5152 31.3402 40.3188 31.3402C40.0241 31.3402 39.8276 31.4385 39.6311 31.6349C39.6311 31.6349 39.5329 31.7332 39.4347 31.9296C39.2382 32.3226 39.2382 32.6173 39.3364 33.0102C39.4347 33.4031 39.7294 33.6978 40.0241 33.9925L41.7923 35.3678C41.9887 35.5643 42.1852 35.6625 42.3817 35.5643C42.5781 35.5643 42.7746 35.3678 42.9711 35.1713L43.364 35.466C42.7746 36.1537 42.3817 36.6448 42.087 36.9395C42.1852 37.0378 41.7923 37.5289 41.2029 38.2166Z" fill="white"/>
<path d="M50.6332 26.9198L49.6509 26.3304C49.8474 27.3127 49.7491 28.0986 49.1597 28.7862C49.0615 28.9827 48.865 29.0809 48.6686 29.2774C48.2756 29.6703 47.8827 29.8668 47.3915 29.965C46.9004 30.0632 46.4092 29.965 45.918 29.8668C45.4269 29.6703 45.0339 29.4738 44.641 29.1791C44.1498 28.7862 43.7569 28.295 43.5604 27.7056C43.364 27.1162 43.2657 26.6251 43.364 26.0357C43.4622 25.4463 43.6587 24.9551 44.0516 24.5622C44.5428 23.9728 45.2304 23.5799 46.0163 23.4816L43.7569 21.6152C43.5604 21.4187 43.364 21.4187 43.1675 21.517C42.971 21.6152 42.7746 21.8117 42.4799 22.1064L42.1852 21.7134C42.971 20.6329 43.5604 19.6505 43.9534 18.9629L50.6332 24.464C50.8297 24.5622 51.0262 24.6604 51.1244 24.5622C51.3209 24.464 51.5173 24.2675 51.7138 24.071L52.1067 24.3657C51.5173 25.1516 51.0262 26.0357 50.6332 26.9198ZM47.1951 24.464C46.9004 24.1693 46.5074 24.071 46.1145 24.071C45.7216 24.071 45.4269 24.2675 45.1322 24.5622C44.7392 25.0534 44.7392 25.4463 44.9357 25.9374C45.1322 26.4286 45.5251 26.8215 46.0163 27.3127C46.0163 27.3127 46.1145 27.3127 46.1145 27.4109C46.2127 27.4109 46.2127 27.5092 46.2127 27.5092C46.6057 27.8039 47.0968 28.0003 47.4898 28.0986C47.9809 28.1968 48.2756 28.0003 48.6686 27.7056C48.9633 27.3127 49.0615 26.9198 48.9633 26.5268C48.865 26.1339 48.6686 25.8392 48.2756 25.4463L47.1951 24.464Z" fill="white"/>
<path d="M54.4643 22.0081L49.258 20.6329C48.9633 20.5347 48.7668 20.5347 48.6686 20.5347C48.5703 20.5347 48.4721 20.5347 48.3739 20.5347C48.2756 20.5347 48.0792 20.6329 47.9809 20.8294L47.588 20.5347C47.9809 20.0435 48.4721 19.5523 48.865 18.9629C49.258 18.4718 49.6509 17.9806 49.9456 17.4894L50.3385 17.7841C50.1421 17.9806 50.0438 18.1771 50.0438 18.3735C50.0438 18.4718 50.0438 18.57 50.1421 18.6682C50.2403 18.7665 50.3385 18.7665 50.6332 18.8647L53.482 19.7488L52.5979 17.8824C52.3032 17.3912 52.1067 16.9983 51.9103 16.8018C51.812 16.7036 51.7138 16.7036 51.7138 16.6053C51.5173 16.5071 51.3209 16.7036 51.0262 16.9983L50.6332 16.7036C51.0262 16.2124 51.3209 15.9177 51.5173 15.7212C51.7138 15.5248 52.0085 15.1318 52.3032 14.7389L52.6961 15.0336C52.5979 15.2301 52.4997 15.4265 52.4997 15.623C52.4997 15.8195 52.5979 16.1142 52.6961 16.3106C52.7944 16.6053 52.8926 16.8018 53.0891 17.1947C53.2855 17.4894 53.3838 17.6859 53.3838 17.7841L55.7414 22.794C55.8396 22.9905 55.9378 23.1869 56.0361 23.4816C56.1343 23.7763 56.2325 24.071 56.3308 24.2675C56.429 24.5622 56.429 24.7587 56.429 25.0534C56.429 25.3481 56.429 25.5445 56.2325 25.741C56.2325 25.741 56.2325 25.8392 56.1343 25.8392C56.1343 25.8392 56.1343 25.9375 56.0361 25.9375C55.9378 26.1339 55.7414 26.2322 55.5449 26.2322C55.3484 26.2322 55.152 26.2322 54.9555 26.1339C54.9555 26.1339 54.9555 26.1339 54.8573 26.1339C54.6608 25.9375 54.5626 25.741 54.5626 25.4463C54.5626 25.1516 54.6608 24.8569 54.8573 24.5622C55.0537 24.2675 55.152 24.071 55.0537 23.8746C55.0537 23.6781 54.9555 23.4816 54.9555 23.2852C54.8573 23.0887 54.759 22.794 54.5626 22.4993C54.5626 22.2046 54.5626 22.0081 54.4643 22.0081Z" fill="white"/>
<path d="M53.2856 14.3459L52.7944 13.9529C53.0891 13.6582 53.1873 13.2653 53.2856 12.8724C53.3838 12.4794 53.1873 12.0865 52.9909 11.89C52.7944 11.6936 52.5979 11.6936 52.4015 11.89C52.205 12.1847 51.9103 12.3812 51.5174 12.4794C51.1244 12.5777 50.8297 12.4794 50.6333 12.283C50.3386 12.0865 50.2403 11.7918 50.1421 11.3989C50.1421 11.0059 50.2403 10.7112 50.4368 10.4165C50.7315 10.0236 51.2227 9.82715 51.7138 9.82715C52.205 9.82715 52.6962 10.0236 53.0891 10.4165C53.7767 11.0059 54.0714 11.5953 54.0714 12.3812C54.1697 12.9706 53.875 13.6582 53.2856 14.3459Z" fill="white"/>
<path d="M60.0636 15.3283C59.7689 15.0336 59.4742 14.8372 59.2778 14.6407C59.0813 14.4442 58.7866 14.2478 58.4919 14.0513L58.7866 13.6584C59.1795 13.8548 59.6707 13.8548 60.1619 13.7566C60.653 13.6584 61.046 13.4619 61.3407 13.1672C61.4389 13.069 61.5371 12.8725 61.5371 12.7743C61.7336 12.2831 61.7336 11.9884 61.4389 11.7919C61.3407 11.6937 61.1442 11.5955 60.9477 11.5955C60.7513 11.5955 60.5548 11.6937 60.2601 11.7919C60.1619 11.7919 59.9654 11.9884 59.6707 12.1849C59.376 12.3813 59.0813 12.5778 58.8848 12.676C58.6884 12.7743 58.3937 12.8725 58.1972 12.9707C58.0007 13.069 57.706 13.069 57.5096 12.9707C57.2149 12.8725 56.9202 12.7743 56.7237 12.5778C56.3308 12.2831 56.1343 11.8902 56.0361 11.4972C55.9378 11.2025 55.9378 10.8096 56.0361 10.5149C56.1343 10.122 56.3308 9.82727 56.6255 9.53257C57.1166 8.94317 57.6078 8.64847 58.099 8.55024L57.9025 8.05907L58.2954 7.66614C58.4919 7.76437 58.6884 7.96084 58.9831 8.25554C59.2778 8.55024 59.5725 8.7467 59.6707 8.84494L59.2778 9.23787C58.8848 9.13964 58.4919 9.13964 58.099 9.23787C57.706 9.3361 57.3131 9.53257 57.1166 9.82727C57.0184 9.9255 56.9202 10.122 56.8219 10.3184C56.7237 10.4167 56.7237 10.6131 56.8219 10.7114C56.8219 10.9078 56.9202 11.0061 57.0184 11.1043C57.2149 11.2025 57.4113 11.2025 57.6078 11.2025C57.8043 11.1043 58.099 11.0061 58.3937 10.7114C58.8848 10.4167 59.2778 10.2202 59.5725 10.0237C59.8672 9.82727 60.2601 9.72903 60.5548 9.72903C60.9477 9.72903 61.3407 9.82727 61.7336 10.2202C62.0283 10.5149 62.323 10.8096 62.4212 11.2025C62.5195 11.5955 62.5195 11.9884 62.4212 12.3813C62.323 12.7743 62.1265 13.1672 61.8318 13.5601C61.3407 14.1495 60.7513 14.5425 60.1619 14.6407L60.4566 15.1319L60.0636 15.3283Z" fill="white"/>
</g>
<defs>
<clipPath id="clip0_159_2136">
<rect width="72" height="72" fill="white"/>
</clipPath>
</defs>
</svg>
