<svg width="48" height="48" viewBox="0 0 48 48" fill="none" xmlns="http://www.w3.org/2000/svg">
<circle cx="24" cy="24" r="24" fill="#E0A449"/>
<rect width="32" height="32" transform="translate(8 8)" fill="#E0A449"/>
<path d="M12 38.6666L17.3333 27.3333L18.6667 26.6666L26 9.33325L36.6667 13.9999L25.3333 32.6666L18.6667 27.3333" stroke="white" stroke-width="1.5"/>
<path d="M27.9999 14C25.9999 14 25.3333 15.3333 25.3333 16.6667C25.3333 18.6667 27.5555 18.8889 28.6666 18.6667V19.3333C28.1333 20.4 26.6666 21.1111 25.9999 21.3333L25.3333 22L25.9999 22.6667C27.9999 22.6667 30.6666 20 30.6666 18C30.6666 16 29.9999 14 27.9999 14Z" fill="white"/>
</svg>
