<svg width="28" height="28" viewBox="0 0 28 28" fill="none" xmlns="http://www.w3.org/2000/svg">
<path fill-rule="evenodd" clip-rule="evenodd" d="M18.2667 10.0365C18.2667 12.372 16.3627 14.276 14.0271 14.276C11.6661 14.276 9.76213 12.372 9.76213 10.0365C9.76213 7.70089 11.6661 5.79688 14.0271 5.79688C16.3627 5.79688 18.2667 7.70089 18.2667 10.0365ZM15.7788 10.0365C15.7788 9.07178 14.9918 8.28478 14.0271 8.28478C13.037 8.28478 12.25 9.07178 12.2754 10.0365C12.2754 11.0012 13.0625 11.7881 14.0271 11.7881C14.9918 11.7881 15.7788 11.0012 15.7788 10.0365Z" fill="#999999"/>
<path d="M18.1906 16.7386C17.429 17.2209 16.5912 17.551 15.7281 17.7541L18.1398 20.0897C18.6221 20.5721 18.6221 21.359 18.1398 21.8414C17.6575 22.3237 16.8705 22.3237 16.3882 21.8414L14.0525 19.5057L11.717 21.8414C11.4631 22.0698 11.1584 22.1968 10.8284 22.1968C10.4984 22.1968 10.1937 22.0953 9.93987 21.8414C9.45751 21.359 9.45751 20.5721 9.93987 20.0897L12.3009 17.7287C11.4377 17.5256 10.5999 17.1956 9.83833 16.7132C9.25442 16.3578 9.07672 15.5962 9.40674 15.0123C9.78755 14.4284 10.5492 14.2762 11.1331 14.6315C12.8594 15.7232 15.1187 15.7232 16.845 14.6315C17.429 14.2507 18.216 14.4284 18.5714 15.0123C18.9522 15.5962 18.7745 16.3831 18.1906 16.7386Z" fill="#999999"/>
</svg>
