<svg width="32" height="32" viewBox="0 0 32 32" fill="none" xmlns="http://www.w3.org/2000/svg">
<g opacity="0.5">
<path d="M21.1769 28.3267H16.0947M21.1769 28.3267C21.1769 29.2 21.1769 30.5629 21.1769 30.5629H11.0125V28.3267C8.00832 27.649 2 24.044 2 15.0451H29.8506C29.8506 15.0451 29.8506 24.6675 21.1769 28.3267Z" stroke="#999999" stroke-width="1.5"/>
<path fill-rule="evenodd" clip-rule="evenodd" d="M27.2962 13.1667H28.8176C28.1755 8.967 24.5477 5.75 20.1686 5.75C15.7894 5.75 12.1616 8.967 11.5195 13.1667H13.0409C13.6668 9.79947 16.62 7.25 20.1686 7.25C23.7171 7.25 26.6703 9.79947 27.2962 13.1667ZM26.3783 13.1667C25.7658 10.2998 23.2182 8.15 20.1686 8.15C17.1189 8.15 14.5714 10.2998 13.9588 13.1667H15.5041C16.0834 11.1364 17.9524 9.65 20.1686 9.65C22.3847 9.65 24.2537 11.1364 24.833 13.1667H26.3783ZM23.8879 13.1667C23.3409 11.6412 21.8822 10.55 20.1686 10.55C18.4549 10.55 16.9962 11.6412 16.4493 13.1667H18.1128C18.5496 12.4945 19.3072 12.05 20.1686 12.05C21.0299 12.05 21.7875 12.4945 22.2243 13.1667H23.8879ZM5.90317 13.1667H8.0917C8.72758 12.7297 9.47286 12.4404 10.2781 12.3483C10.356 11.8245 10.4747 11.3139 10.6306 10.8199C8.72283 10.8803 7.02739 11.7822 5.90317 13.1667ZM4.78758 13.1667C6.0856 11.2081 8.30959 9.91667 10.8352 9.91667C10.8783 9.91667 10.9213 9.91704 10.9642 9.91779C11.1807 9.40959 11.438 8.92297 11.7321 8.46207C11.4372 8.43205 11.138 8.41667 10.8352 8.41667C7.444 8.41667 4.50338 10.3459 3.05096 13.1667H4.78758ZM12.0478 25.8333H9.62269C10.019 25.8883 10.4238 25.9167 10.8352 25.9167C11.2466 25.9167 11.6514 25.8883 12.0478 25.8333Z" fill="#999999"/>
<path d="M8.66669 7.99998L3.33335 1.33331" stroke="#999999" stroke-width="1.5"/>
<path d="M11.3333 7.33331L9.33331 1.33331" stroke="#999999" stroke-width="1.5"/>
</g>
</svg>
