<svg width="32" height="32" viewBox="0 0 32 32" fill="none" xmlns="http://www.w3.org/2000/svg">
<g opacity="0.5">
<path d="M17.3333 17.6667L17.1762 18.4L18.471 18.6775L18.0431 17.4243L17.3333 17.6667ZM4.22922 14.8586L4.38636 14.1253L3.63402 13.9641L3.49209 14.7203L4.22922 14.8586ZM12.9218 4.74712L12.6737 4.03933L11.9716 4.28541L12.212 4.98947L12.9218 4.74712ZM17.4905 16.9333L4.38636 14.1253L4.07207 15.592L17.1762 18.4L17.4905 16.9333ZM12.212 4.98947L16.6236 17.909L18.0431 17.4243L13.6315 4.50476L12.212 4.98947ZM13.1698 5.4549C14.472 4.9985 15.8729 4.75 17.3333 4.75V3.25C15.7016 3.25 14.1332 3.52781 12.6737 4.03933L13.1698 5.4549ZM17.3333 4.75C24.2829 4.75 29.9167 10.3837 29.9167 17.3333H31.4167C31.4167 9.55532 25.1113 3.25 17.3333 3.25V4.75ZM29.9167 17.3333C29.9167 24.2829 24.2829 29.9167 17.3333 29.9167V31.4167C25.1113 31.4167 31.4167 25.1113 31.4167 17.3333H29.9167ZM17.3333 29.9167C10.3837 29.9167 4.75 24.2829 4.75 17.3333H3.25C3.25 25.1113 9.55532 31.4167 17.3333 31.4167V29.9167ZM4.75 17.3333C4.75 16.5344 4.82436 15.7535 4.96635 14.997L3.49209 14.7203C3.33307 15.5676 3.25 16.4411 3.25 17.3333H4.75Z" fill="#999999"/>
<path d="M17.3333 17.6666L17.1762 18.4L18.471 18.6775L18.0431 17.4243L17.3333 17.6666ZM6.6751 15.3827L6.83225 14.6494L6.07562 14.4873L5.9372 15.2486L6.6751 15.3827ZM13.7298 7.11356L13.4804 6.40625L12.7801 6.65318L13.0201 7.35592L13.7298 7.11356ZM17.4905 16.9333L6.83225 14.6494L6.51796 16.1161L17.1762 18.4L17.4905 16.9333ZM13.0201 7.35592L16.6236 17.909L18.0431 17.4243L14.4396 6.87121L13.0201 7.35592ZM13.9792 7.82088C15.0276 7.45124 16.1561 7.24982 17.3333 7.24982V5.74982C15.9839 5.74982 14.6868 5.98089 13.4804 6.40625L13.9792 7.82088ZM17.3333 7.24982C22.9022 7.24982 27.4167 11.7643 27.4167 17.3331H28.9167C28.9167 10.9359 23.7306 5.74982 17.3333 5.74982V7.24982ZM27.4167 17.3331C27.4167 22.902 22.9022 27.4165 17.3333 27.4165V28.9165C23.7306 28.9165 28.9167 23.7304 28.9167 17.3331H27.4167ZM17.3333 27.4165C11.7645 27.4165 7.25 22.902 7.25 17.3331H5.75C5.75 23.7304 10.936 28.9165 17.3333 28.9165V27.4165ZM7.25 17.3331C7.25 16.7125 7.30599 16.1055 7.41301 15.5169L5.9372 15.2486C5.81416 15.9253 5.75 16.6221 5.75 17.3331H7.25Z" fill="#999999"/>
<path d="M13.4573 14.1078L13.3002 14.8411L14.595 15.1186L14.1671 13.8654L13.4573 14.1078ZM2 11.6526L1.26287 11.5143L1.12802 12.2328L1.84285 12.386L2 11.6526ZM9.60016 2.81183L10.3099 2.56947L10.0656 1.85396L9.35209 2.10404L9.60016 2.81183ZM13.6145 13.3744L2.15715 10.9193L1.84285 12.386L13.3002 14.8411L13.6145 13.3744ZM8.8904 3.05419L12.7475 14.3501L14.1671 13.8654L10.3099 2.56947L8.8904 3.05419ZM2.73713 11.791C3.46072 7.93558 6.21531 4.79291 9.84823 3.51961L9.35209 2.10404C5.21991 3.55232 2.08677 7.12447 1.26287 11.5143L2.73713 11.791Z" fill="#999999"/>
<path d="M13.4574 14.1078L13.3002 14.8412L14.595 15.1186L14.1671 13.8654L13.4574 14.1078ZM4.59534 12.2088L3.85743 12.0747L3.72741 12.7898L4.43819 12.9422L4.59534 12.2088ZM10.4611 5.33313L11.1709 5.09077L10.9261 4.37392L10.2117 4.62581L10.4611 5.33313ZM13.6145 13.3745L4.75248 11.4754L4.43819 12.9422L13.3002 14.8412L13.6145 13.3745ZM9.75137 5.57549L12.7476 14.3502L14.1671 13.8654L11.1709 5.09077L9.75137 5.57549ZM5.33324 12.3429C5.86663 9.40892 7.95297 7.01278 10.7105 6.04045L10.2117 4.62581C6.95368 5.77462 4.48851 8.60324 3.85743 12.0747L5.33324 12.3429Z" fill="#999999"/>
<mask id="path-5-inside-1_93_848" fill="white">
<ellipse cx="9.33329" cy="9.99998" rx="0.666667" ry="0.666667"/>
</mask>
<ellipse cx="9.33329" cy="9.99998" rx="0.666667" ry="0.666667" fill="#D9D9D9"/>
<path d="M8.99996 9.99998C8.99996 9.81589 9.1492 9.66665 9.33329 9.66665V11.6666C10.2538 11.6666 11 10.9205 11 9.99998H8.99996ZM9.33329 9.66665C9.51739 9.66665 9.66663 9.81589 9.66663 9.99998H7.66663C7.66663 10.9205 8.41282 11.6666 9.33329 11.6666V9.66665ZM9.66663 9.99998C9.66663 10.1841 9.51739 10.3333 9.33329 10.3333V8.33331C8.41282 8.33331 7.66663 9.07951 7.66663 9.99998H9.66663ZM9.33329 10.3333C9.1492 10.3333 8.99996 10.1841 8.99996 9.99998H11C11 9.07951 10.2538 8.33331 9.33329 8.33331V10.3333Z" fill="#999999" mask="url(#path-5-inside-1_93_848)"/>
<path d="M21.9167 11.3333C21.9167 12.3918 21.0586 13.25 20 13.25C18.9415 13.25 18.0834 12.3918 18.0834 11.3333C18.0834 10.2747 18.9415 9.41663 20 9.41663C21.0586 9.41663 21.9167 10.2747 21.9167 11.3333Z" stroke="#999999" stroke-width="1.5"/>
<circle cx="16.6667" cy="22.6666" r="1.91667" stroke="#999999" stroke-width="1.5"/>
<ellipse cx="23.3333" cy="15.3333" rx="0.666667" ry="0.666667" fill="#999999"/>
<ellipse cx="10.6667" cy="20" rx="0.666667" ry="0.666666" fill="#999999"/>
<circle cx="20.6667" cy="20.6666" r="0.666667" fill="#999999"/>
</g>
</svg>
