<svg width="48" height="48" viewBox="0 0 48 48" fill="none" xmlns="http://www.w3.org/2000/svg">
<path d="M10.9689 33.5216C8.73437 35.1412 6.29666 35.951 3.65581 36.1534L3.65581 40C9.54694 39.5951 14.0161 37.5706 17.4695 34.3314C20.7198 31.0922 22.3449 26.6383 21.9386 21.1721C21.7355 17.9329 20.5167 14.8961 18.4852 12.4667C16.4538 9.83488 13.8129 8.82263 10.3595 9.02508C7.92181 9.22753 5.89039 10.2398 4.26525 11.8594C2.64011 13.6814 1.82754 15.7059 2.03068 17.9329C2.23382 20.1599 3.24953 21.9819 5.07782 23.1966C6.9061 24.4113 8.93753 25.0187 11.3752 24.8162C13.2035 24.6138 14.0161 25.626 14.2192 27.4481C14.2192 29.8775 13.2035 31.902 10.9689 33.5216Z" stroke="#999999" stroke-width="1.5"/>
<path d="M34.4174 33.5216C32.0711 35.1412 29.5115 35.951 26.7386 36.1534L26.7386 40C32.9243 39.5951 37.6169 37.5706 41.243 34.3314C44.6558 31.0922 46.3622 26.6383 45.9356 21.1721C45.7223 17.9329 44.4425 14.8961 42.3095 12.4667C40.1765 9.83488 37.4036 8.82263 33.7775 9.02508C31.2179 9.22753 29.0849 10.2398 27.3785 11.8594C25.6721 13.6814 24.8189 15.7059 25.0322 17.9329C25.2455 20.1599 26.312 21.9819 28.2317 23.1966C30.1514 24.4113 32.2844 25.0187 34.844 24.8162C36.7637 24.6138 37.6169 25.626 37.8302 27.4481C37.8302 29.8775 36.7637 31.902 34.4174 33.5216Z" stroke="#999999" stroke-width="1.5"/>
</svg>
