<svg width="32" height="32" viewBox="0 0 32 32" fill="none" xmlns="http://www.w3.org/2000/svg">
<g opacity="0.5">
<path d="M21.1769 26.4933H16.0947M21.1769 26.4933C21.1769 27.3666 21.1769 28.7295 21.1769 28.7295H11.0125V26.4933C8.00832 25.8157 2 22.2107 2 13.2118H29.8506C29.8506 13.2118 29.8506 22.8341 21.1769 26.4933Z" stroke="#999999" stroke-width="1.5"/>
<path d="M14.6666 11.3333C14.6666 8.75596 12.428 6.66663 9.66663 6.66663C6.9052 6.66663 4.66663 8.75596 4.66663 11.3333" stroke="#999999" stroke-width="1.5"/>
<path d="M11.2867 5.34269V3.33331C14.0482 3.499 18.8588 4.40241 21.1565 6.68228M22.45 11.5941C22.45 10.4778 22.45 10.701 22.45 9.58471C22.45 8.43313 21.955 7.47458 21.1565 6.68228M21.1565 6.68228C22.0342 6.16133 24.4147 5.16408 26.9152 5.34269C27.585 8.46839 27.1385 10.0312 26.4687 11.5941" stroke="#999999" stroke-width="1.5"/>
<path d="M19.3243 11.8173C18.9065 11.4317 18.25 10.8129 17.5382 10.1191M14.859 7.35205C15.5694 8.16389 16.6017 9.20636 17.5382 10.1191M17.5382 10.1191L17.7614 7.35205" stroke="#999999" stroke-width="1.5"/>
<ellipse cx="7.33329" cy="10.6667" rx="0.666667" ry="0.666667" fill="#999999"/>
<circle cx="12" cy="9.99998" r="0.666667" fill="#999999"/>
<circle cx="9.33329" cy="8.66667" r="0.666667" fill="#999999"/>
</g>
</svg>
