<svg width="20" height="20" viewBox="0 0 20 20" fill="none" xmlns="http://www.w3.org/2000/svg">
<path d="M4.60291 2.19999L3.30361 3.93332C3.04626 4.27664 2.91759 4.4483 2.92057 4.59198C2.92317 4.71702 2.98177 4.83428 3.08019 4.91139C3.19329 4.99999 3.40774 4.99999 3.83666 4.99999H16.1633C16.5923 4.99999 16.8067 4.99999 16.9198 4.91139C17.0182 4.83428 17.0768 4.71702 17.0794 4.59198C17.0824 4.4483 16.9537 4.27664 16.6964 3.93332L15.3971 2.19999M4.60291 2.19999C4.7495 2.00443 4.82279 1.90666 4.91568 1.83614C4.99795 1.77368 5.09111 1.72707 5.19041 1.69869C5.30253 1.66666 5.42469 1.66666 5.669 1.66666H14.331C14.5753 1.66666 14.6975 1.66666 14.8096 1.69869C14.9089 1.72707 15.0021 1.77368 15.0843 1.83614C15.1772 1.90666 15.2505 2.00443 15.3971 2.19999M4.60291 2.19999L3.03709 4.28888C2.83931 4.55272 2.74042 4.68465 2.6702 4.82992C2.60789 4.95884 2.56244 5.09525 2.53499 5.23579C2.50404 5.39417 2.50404 5.55907 2.50404 5.88888L2.50404 15.6667C2.50404 16.6001 2.50404 17.0668 2.6856 17.4233C2.8453 17.7369 3.10013 17.9919 3.41357 18.1517C3.76989 18.3333 4.23635 18.3333 5.16927 18.3333L14.8307 18.3333C15.7636 18.3333 16.2301 18.3333 16.5864 18.1517C16.8999 17.9919 17.1547 17.7369 17.3144 17.4233C17.496 17.0668 17.496 16.6001 17.496 15.6667V5.88888C17.496 5.55907 17.496 5.39417 17.465 5.23579C17.4376 5.09525 17.3921 4.95884 17.3298 4.82993C17.2596 4.68465 17.1607 4.55272 16.9629 4.28888L15.3971 2.19999M13.3315 8.33332C13.3315 9.21738 12.9805 10.0652 12.3558 10.6903C11.731 11.3155 10.8836 11.6667 10 11.6667C9.11642 11.6667 8.26903 11.3155 7.64425 10.6903C7.01946 10.0652 6.66846 9.21738 6.66846 8.33332" stroke="white" stroke-width="1.5" stroke-linecap="round" stroke-linejoin="round"/>
</svg>
