<svg width="32" height="32" viewBox="0 0 32 32" fill="none" xmlns="http://www.w3.org/2000/svg">
<g opacity="0.5">
<path fill-rule="evenodd" clip-rule="evenodd" d="M8 24.8488C5.545 25.4591 4 26.3461 4 27.3333C4 29.1743 9.37258 30.6667 16 30.6667C22.6274 30.6667 28 29.1743 28 27.3333C28 26.2595 26.172 25.3043 23.3333 24.6946V26H22.1943C22.8844 26.1226 23.518 26.2644 24.0838 26.4216C25.098 26.7033 25.81 27.0115 26.2336 27.2896C26.2567 27.3048 26.2782 27.3194 26.2982 27.3333C26.2782 27.3473 26.2567 27.3618 26.2336 27.377C25.81 27.6552 25.098 27.9634 24.0838 28.2451C22.0765 28.8026 19.2179 29.1667 16 29.1667C12.7821 29.1667 9.92346 28.8026 7.91618 28.2451C6.902 27.9634 6.18999 27.6552 5.76643 27.377C5.74331 27.3618 5.72178 27.3473 5.70176 27.3333C5.72178 27.3194 5.74331 27.3048 5.76643 27.2896C6.18999 27.0115 6.902 26.7033 7.91618 26.4216C8.48205 26.2644 9.11557 26.1226 9.80573 26H8V24.8488ZM26.5489 27.1143C26.5493 27.1143 26.5473 27.1181 26.5416 27.1255C26.5457 27.1179 26.5486 27.1142 26.5489 27.1143ZM5.45106 27.1143C5.45144 27.1142 5.45427 27.1179 5.45838 27.1255C5.45273 27.1181 5.45068 27.1143 5.45106 27.1143ZM5.45106 27.5524C5.45068 27.5524 5.45273 27.5486 5.45838 27.5412C5.45427 27.5487 5.45144 27.5524 5.45106 27.5524ZM26.5416 27.5412C26.5473 27.5486 26.5493 27.5524 26.5489 27.5524C26.5486 27.5524 26.5457 27.5487 26.5416 27.5412Z" fill="#999999"/>
<path d="M22.2466 22.9906C21.3977 25.0155 18.9779 26.5829 16 26.5829C13.0219 26.5829 10.602 25.0154 9.75318 22.9903C9.66292 22.7749 9.70444 22.589 9.85298 22.4205C10.0187 22.2324 10.3173 22.0828 10.6679 22.0828L16 22.083C17.5196 22.083 18.4151 22.083 19.1347 22.0831C19.8884 22.0831 20.449 22.0832 21.3316 22.0831C21.6823 22.0831 21.981 22.2327 22.1468 22.4208C22.2954 22.5893 22.3369 22.7753 22.2466 22.9906Z" stroke="#999999" stroke-width="1.5"/>
<rect x="8.4664" y="16.1676" width="11.8333" height="2.5" rx="1.25" transform="rotate(6.86342 8.4664 16.1676)" stroke="#999999" stroke-width="1.5"/>
<circle cx="16" cy="10.6667" r="3.91667" stroke="#999999" stroke-width="1.5"/>
<path d="M16 1.33331V5.66665" stroke="#999999" stroke-width="1.5"/>
</g>
</svg>
