<svg width="28" height="28" viewBox="0 0 28 28" fill="none" xmlns="http://www.w3.org/2000/svg">
<path d="M6.33273 13.5253C10.5606 11.6731 13.3798 10.452 14.7904 9.86198C18.818 8.17747 19.6549 7.88486 20.2004 7.87509C20.3203 7.87307 20.5886 7.90297 20.7623 8.04475C20.9091 8.16446 20.9494 8.32618 20.9687 8.43968C20.9881 8.55318 21.0121 8.81174 20.993 9.01377C20.7747 11.3197 19.8304 16.9157 19.3499 19.4984C19.1466 20.5912 18.7463 20.9576 18.3588 20.9935C17.5166 21.0714 16.877 20.4338 16.0613 19.8961C14.7849 19.0548 14.0638 18.531 12.8248 17.71C11.3929 16.7612 12.3211 16.2397 13.1372 15.3875C13.3507 15.1644 17.0615 11.7705 17.1333 11.4626C17.1423 11.4241 17.1506 11.2805 17.0658 11.2047C16.981 11.129 16.8559 11.1549 16.7656 11.1755C16.6375 11.2047 14.5984 12.56 10.6482 15.2413C10.0694 15.6409 9.54515 15.8356 9.07544 15.8254C8.55761 15.8142 7.56153 15.531 6.82104 15.289C5.91281 14.9921 5.19096 14.8352 5.25382 14.331C5.28656 14.0684 5.64619 13.7998 6.33273 13.5253Z" fill="#999999"/>
</svg>
