<svg width="20" height="20" viewBox="0 0 20 20" fill="none" xmlns="http://www.w3.org/2000/svg">
<g opacity="0.5">
<path d="M13.332 13.3333V4.33333C13.332 3.39991 13.332 3.76654 13.1504 3.41002C12.9906 3.09641 12.7356 2.84144 12.422 2.68166C12.0655 2.5 11.5988 2.5 10.6654 2.5H5.16536C4.23194 2.5 4.59857 2.5 4.24205 2.68166C3.92844 2.84144 3.67348 3.09641 3.51369 3.41002C3.33203 3.76654 3.33203 3.39991 3.33203 4.33333V10.6667C3.33203 11.6001 3.33203 12.0668 3.51369 12.4233C3.67348 12.7369 3.92844 12.9919 4.24205 13.1517C4.59857 13.3333 4.23194 13.3333 5.16536 13.3333H13.332ZM13.332 13.3333H16.9987C17.4654 13.3333 17.6988 13.3333 17.877 13.2425C18.0338 13.1626 18.1613 13.0351 18.2412 12.8783C18.332 12.7001 18.332 12.4667 18.332 12V9.71895C18.332 9.51513 18.332 9.41321 18.309 9.31731C18.2886 9.23228 18.2549 9.15099 18.2092 9.07643C18.1577 8.99233 18.0856 8.92027 17.9415 8.77614L16.2226 7.05719C16.0784 6.91306 16.0064 6.841 15.9223 6.78947C15.8477 6.74378 15.7664 6.71011 15.6814 6.68969C15.5855 6.66667 15.4836 6.66667 15.2797 6.66667H13.332M8.33203 14.5833C8.33203 15.7339 7.39929 16.6667 6.2487 16.6667C5.0981 16.6667 4.16536 15.7339 4.16536 14.5833C4.16536 13.4327 5.0981 13.3333 6.2487 13.3333C7.39929 13.3333 8.33203 13.4327 8.33203 14.5833ZM16.6654 14.5833C16.6654 15.7339 15.7326 16.6667 14.582 16.6667C13.4314 16.6667 12.4987 15.7339 12.4987 14.5833C12.4987 13.4327 13.4314 13.3333 14.582 13.3333C15.7326 13.3333 16.6654 13.4327 16.6654 14.5833Z" stroke="#313435" stroke-width="1.5" stroke-linecap="round" stroke-linejoin="round"/>
<path d="M7.08203 5.83334L2.08203 5.83334" stroke="#313435" stroke-width="1.5" stroke-linecap="round"/>
<path d="M6.2487 9.16666H0.832031" stroke="#313435" stroke-width="1.5" stroke-linecap="round"/>
</g>
</svg>
