<svg width="20" height="20" viewBox="0 0 20 20" fill="none" xmlns="http://www.w3.org/2000/svg">
<g opacity="0.5">
<path d="M13.3334 13.3333V4.33333C13.3334 3.39991 13.3334 3.76654 13.1517 3.41002C12.9919 3.09641 12.737 2.84144 12.4234 2.68166C12.0668 2.5 11.6001 2.5 10.6667 2.5H5.16671C4.23329 2.5 4.59991 2.5 4.24339 2.68166C3.92979 2.84144 3.67482 3.09641 3.51503 3.41002C3.33337 3.76654 3.33337 3.39991 3.33337 4.33333V10.6667C3.33337 11.6001 3.33337 12.0668 3.51503 12.4233C3.67482 12.7369 3.92979 12.9919 4.24339 13.1517C4.59991 13.3333 4.23329 13.3333 5.16671 13.3333H13.3334ZM13.3334 13.3333H17C17.4668 13.3333 17.7001 13.3333 17.8784 13.2425C18.0352 13.1626 18.1627 13.0351 18.2425 12.8783C18.3334 12.7001 18.3334 12.4667 18.3334 12V9.71895C18.3334 9.51513 18.3334 9.41321 18.3103 9.31731C18.2899 9.23228 18.2563 9.15099 18.2106 9.07643C18.159 8.99233 18.087 8.92027 17.9428 8.77614L16.2239 7.05719C16.0798 6.91306 16.0077 6.841 15.9236 6.78947C15.8491 6.74378 15.7678 6.71011 15.6827 6.68969C15.5868 6.66667 15.4849 6.66667 15.2811 6.66667H13.3334M8.33337 14.5833C8.33337 15.7339 7.40063 16.6667 6.25004 16.6667C5.09945 16.6667 4.16671 15.7339 4.16671 14.5833C4.16671 13.4327 5.09945 13.3333 6.25004 13.3333C7.40063 13.3333 8.33337 13.4327 8.33337 14.5833ZM16.6667 14.5833C16.6667 15.7339 15.734 16.6667 14.5834 16.6667C13.4328 16.6667 12.5 15.7339 12.5 14.5833C12.5 13.4327 13.4328 13.3333 14.5834 13.3333C15.734 13.3333 16.6667 13.4327 16.6667 14.5833Z" stroke="white" stroke-width="1.5" stroke-linecap="round" stroke-linejoin="round"/>
<path d="M7.08337 5.83325L2.08337 5.83325" stroke="white" stroke-width="1.5" stroke-linecap="round"/>
<path d="M6.25004 9.16675H0.833374" stroke="white" stroke-width="1.5" stroke-linecap="round"/>
</g>
</svg>
