<svg width="28" height="28" viewBox="0 0 28 28" fill="none" xmlns="http://www.w3.org/2000/svg">
<path d="M21.875 9.28846C21.2844 9.57115 20.6938 9.66538 20.0047 9.75962C20.6938 9.38269 21.1859 8.81731 21.3828 8.06346C20.7922 8.44038 20.1031 8.62885 19.3156 8.81731C18.725 8.25192 17.8391 7.875 16.9531 7.875C14.8859 7.875 13.3109 9.75962 13.8031 11.6442C11.1453 11.55 8.78281 10.325 7.10938 8.44038C6.22344 9.85385 6.71563 11.6442 8.09375 12.5865C7.60156 12.5865 7.10938 12.3981 6.61719 12.2096C6.61719 13.6231 7.7 14.9423 9.17656 15.3192C8.68438 15.4135 8.19219 15.5077 7.7 15.4135C8.09375 16.6385 9.275 17.5808 10.7516 17.5808C9.57031 18.4288 7.79844 18.9 6.125 18.7115C7.60156 19.5596 9.275 20.125 11.0469 20.125C17.0516 20.125 20.3984 15.3192 20.2016 10.8904C20.8906 10.5135 21.4812 9.94808 21.875 9.28846Z" fill="#999999"/>
</svg>
