<svg width="28" height="28" viewBox="0 0 28 28" fill="none" xmlns="http://www.w3.org/2000/svg">
<path d="M14.778 20.125C8.79895 20.125 5.38986 15.8628 5.25 8.75911H8.25699C8.35315 13.9685 10.5559 16.1724 12.3042 16.6278V8.75911H15.1276V13.249C16.8497 13.0577 18.6678 11.0086 19.2797 8.75H22.0944C21.8649 9.91916 21.4064 11.0265 20.7477 12.0027C20.0889 12.9789 19.244 13.8031 18.2657 14.4238C19.3575 14.99 20.3216 15.7908 21.0945 16.7735C21.8675 17.7562 22.4317 18.8985 22.75 20.125H19.6469C18.9825 17.9666 17.3217 16.2908 15.1276 16.0631V20.125H14.7867H14.778Z" fill="#999999"/>
</svg>
