<svg width="28" height="28" viewBox="0 0 28 28" fill="none" xmlns="http://www.w3.org/2000/svg">
<path fill-rule="evenodd" clip-rule="evenodd" d="M20.125 7.76563C18.4844 6.125 16.2969 5.25 14 5.25C9.1875 5.25 5.25 9.1875 5.25 14C5.25 15.5312 5.68751 17.0625 6.45313 18.375L5.25 22.75L9.84376 21.5469C11.1563 22.2031 12.5781 22.6406 14 22.6406C18.8125 22.6406 22.75 18.7031 22.75 13.8906C22.75 11.5937 21.7656 9.40625 20.125 7.76563ZM14 21.2188C12.6875 21.2188 11.375 20.8906 10.2813 20.2344L10.0625 20.125L7.32812 20.8906L8.09376 18.2656L7.87499 17.9375C7.10937 16.7344 6.78124 15.4219 6.78124 14.1094C6.78124 10.1719 10.0625 6.89062 14 6.89062C15.9687 6.89062 17.7188 7.65625 19.1406 8.96875C20.5625 10.3906 21.2188 12.1406 21.2188 14.1094C21.2188 17.9375 18.0469 21.2188 14 21.2188ZM17.9375 15.75C17.7188 15.6406 16.625 15.0938 16.4063 15.0938C16.1875 14.9844 16.0781 14.9844 15.9687 15.2031C15.8594 15.4219 15.4219 15.8594 15.3125 16.0781C15.2031 16.1875 15.0937 16.1875 14.875 16.1875C14.6562 16.0781 14 15.8594 13.125 15.0938C12.4688 14.5469 12.0313 13.7813 11.9219 13.5625C11.8125 13.3438 11.9219 13.2344 12.0313 13.125C12.1406 13.0156 12.25 12.9062 12.3594 12.7969C12.4688 12.6875 12.4688 12.5781 12.5781 12.4688C12.6875 12.3594 12.5781 12.25 12.5781 12.1406C12.5781 12.0313 12.1406 10.9375 11.9219 10.5C11.8125 10.1719 11.5938 10.1719 11.4844 10.1719C11.375 10.1719 11.2656 10.1719 11.0469 10.1719C10.9375 10.1719 10.7187 10.1719 10.5 10.3906C10.2812 10.6094 9.73438 11.1562 9.73438 12.25C9.73438 13.3437 10.5 14.3281 10.6094 14.5469C10.7187 14.6563 12.1406 16.9531 14.3281 17.8281C16.1875 18.5937 16.5156 18.375 16.9531 18.375C17.3906 18.375 18.2656 17.8281 18.375 17.3906C18.5938 16.8438 18.5938 16.4063 18.4844 16.4063C18.375 15.8594 18.1563 15.8594 17.9375 15.75Z" fill="#999999"/>
</svg>
